<svg xmlns="http://www.w3.org/2000/svg" version="1.1" width="20" height="20" x="0" y="0" viewBox="0 0 512 512"
     style="enable-background:new 0 0 512 512" xml:space="preserve" class=""><g>
    <path fill="#41B7FE"
          d="M400.6 0H111.4C85.913 0 64.267 20.556 64.267 47.133v427.63c0 20.532 16.712 37.236 37.253 37.236 10.34 0 20.088-4.032 27.448-11.354l110.235-110.204c4.423-4.447 10.53-6.975 16.797-6.975s12.374 2.528 16.797 6.975l110.235 110.204c7.36 7.322 17.108 11.354 27.448 11.354 20.541 0 37.253-16.704 37.253-37.236V47.133C447.733 20.556 426.087 0 400.6 0z"
          opacity="1" class="">
    </path>
    <path fill="#41B7FE"
          d="M400.6 0H256v383.467c6.267 0 12.374 2.528 16.797 6.975l110.235 110.204C390.392 507.968 400.14 512 410.48 512c20.541 0 37.253-16.704 37.253-37.236V47.133C447.733 20.556 426.087 0 400.6 0z"
          opacity="1" class="">
    </path></g></svg>