<?xml version="1.0" encoding="UTF-8"?>
<svg xmlns="http://www.w3.org/2000/svg" width="16" height="16" viewBox="0 0 20 20" version="1.1">
  <g id="surface1">
    <path style=" stroke:none;fill-rule:nonzero;fill:#CED0D6;fill-opacity:1;"
          d="M 1.5625 3.75 C 1.046875 3.75 0.625 4.171875 0.625 4.6875 L 0.625 13.4375 C 0.625 13.949219 1.046875 14.375 1.5625 14.375 L 5.941406 14.375 C 5.9375 14.433594 5.925781 14.5 5.902344 14.582031 C 5.832031 14.859375 5.652344 15.234375 5.195312 15.625 L 4.6875 15.625 C 4.269531 15.625 4.269531 16.25 4.6875 16.25 L 8.4375 16.25 C 8.855469 16.25 8.855469 15.625 8.4375 15.625 L 6.0625 15.625 C 6.304688 15.308594 6.441406 15 6.507812 14.738281 C 6.542969 14.601562 6.558594 14.484375 6.566406 14.375 L 8.4375 14.375 C 8.859375 14.378906 8.859375 13.742188 8.4375 13.75 L 1.5625 13.75 C 1.382812 13.75 1.25 13.617188 1.25 13.4375 L 1.25 11.875 L 8.4375 11.875 C 8.859375 11.878906 8.859375 11.242188 8.4375 11.25 L 1.25 11.25 L 1.25 4.6875 C 1.25 4.507812 1.382812 4.375 1.5625 4.375 L 13.4375 4.375 C 13.617188 4.375 13.75 4.507812 13.75 4.6875 C 13.746094 5.109375 14.378906 5.109375 14.375 4.6875 C 14.375 4.171875 13.953125 3.75 13.4375 3.75 Z M 10.3125 5.625 C 9.796875 5.625 9.375 6.046875 9.375 6.5625 L 9.375 15.3125 C 9.375 15.828125 9.796875 16.25 10.3125 16.25 L 14.0625 16.25 C 14.476562 16.25 14.476562 15.625 14.0625 15.625 L 10.3125 15.625 C 10.132812 15.625 10 15.492188 10 15.3125 L 10 13.75 L 14.0625 13.75 C 14.476562 13.75 14.476562 13.125 14.0625 13.125 L 10 13.125 L 10 7.5 L 16.25 7.5 L 16.25 8.4375 C 16.25 8.855469 16.875 8.855469 16.875 8.4375 L 16.875 6.5625 C 16.875 6.046875 16.449219 5.625 15.9375 5.625 Z M 2.183594 6.242188 C 2.007812 6.246094 1.871094 6.390625 1.875 6.5625 L 1.875 7.1875 C 1.875 7.605469 2.5 7.605469 2.5 7.1875 L 2.5 6.5625 C 2.503906 6.386719 2.359375 6.242188 2.183594 6.242188 Z M 10.3125 6.25 L 15.9375 6.25 C 16.117188 6.25 16.25 6.382812 16.25 6.5625 L 16.25 6.875 L 10 6.875 L 10 6.5625 C 10 6.382812 10.132812 6.25 10.3125 6.25 Z M 2.183594 8.121094 C 2.007812 8.121094 1.871094 8.265625 1.875 8.4375 L 1.875 10.3125 C 1.875 10.726562 2.5 10.726562 2.5 10.3125 L 2.5 8.4375 C 2.503906 8.261719 2.359375 8.117188 2.183594 8.121094 Z M 10.933594 8.121094 C 10.757812 8.121094 10.621094 8.265625 10.625 8.4375 L 10.625 9.0625 C 10.625 9.480469 11.25 9.480469 11.25 9.0625 L 11.25 8.4375 C 11.253906 8.261719 11.109375 8.117188 10.933594 8.121094 Z M 15.9375 9.375 C 15.421875 9.375 15 9.796875 15 10.3125 L 15 15.3125 C 15 15.828125 15.421875 16.25 15.9375 16.25 L 18.4375 16.25 C 18.953125 16.25 19.375 15.828125 19.375 15.3125 L 19.375 10.3125 C 19.375 9.796875 18.953125 9.375 18.4375 9.375 Z M 10.933594 9.996094 C 10.761719 9.996094 10.621094 10.136719 10.625 10.3125 L 10.625 12.1875 C 10.625 12.601562 11.25 12.601562 11.25 12.1875 L 11.25 10.3125 C 11.25 10.136719 11.109375 9.992188 10.933594 9.996094 Z M 15.9375 10 L 18.4375 10 C 18.617188 10 18.75 10.132812 18.75 10.3125 L 18.75 10.625 L 15.625 10.625 L 15.625 10.3125 C 15.625 10.132812 15.757812 10 15.9375 10 Z M 15.625 11.25 L 18.75 11.25 L 18.75 14.375 L 15.625 14.375 Z M 7.1875 13.125 L 7.8125 13.125 C 8.230469 13.125 8.230469 12.5 7.8125 12.5 L 7.171875 12.5 C 6.738281 12.519531 6.769531 13.144531 7.1875 13.125 Z M 12.8125 14.375 C 12.398438 14.375 12.398438 15 12.8125 15 L 13.4375 15 C 13.855469 15 13.855469 14.375 13.4375 14.375 Z M 15.625 15 L 18.75 15 L 18.75 15.3125 C 18.75 15.492188 18.617188 15.625 18.4375 15.625 L 15.9375 15.625 C 15.757812 15.625 15.625 15.492188 15.625 15.3125 Z M 15.625 15 "/>
  </g>
</svg>
