<svg width="16" height="16" viewBox="0 0 16 16" fill="none" xmlns="http://www.w3.org/2000/svg">
    <path fill-rule="evenodd" clip-rule="evenodd"
          d="M3 3H1V5H3V3ZM3 7H1V9H3V7ZM1 11H3V13H1V11ZM15 3H5V5H15V3ZM5 7H15V9H5V7ZM15 11H5V13H15V11Z" fill="#e3e3e3" fill-opacity="0.7"/>
    <path d="M10 10C10 9.44772 10.4477 9 11 9H13.9994C14.5517 9 14.9994 9.44772 14.9994 10V15.7092C14.9994 15.9189 14.7567 16.0354 14.5931 15.9042L12.4997 14.2262L10.4064 15.9042C10.2427 16.0354 10 15.9189 10 15.7092V10Z"
          fill="#41B7FE"/>
</svg>
