<svg height="16" viewBox="0 0 56 58" width="16" xmlns="http://www.w3.org/2000/svg">
    <g id="Page-1" fill="none" fill-rule="evenodd">
        <g id="007---Sweeping" fill="rgb(0,0,0)" fill-rule="nonzero">
            <path id="Shape"
                  d="m26.1 35.021c1.2239924.7545092 2.6506422 1.1137903 4.086 1.029 1.37027-.019405 2.7294378-.2490807 4.03-.681-.475935-1.8687857-1.8075206-3.4024638-3.591-4.136-1.1518353-.4974399-2.4609587-.4810758-3.6.045-1.0309613.5681001-1.8284342 1.4817236-2.252 2.58.3785881.454876.8263986.847343 1.327 1.163z"/>
            <path id="Shape"
                  d="m31.9 45.478c.2530569-1.8401351 1.3578903-3.4536662 2.982-4.355-.0368797-1.2554537-.1420351-2.5079713-.315-3.752-1.5122284.4530382-3.0823683.6834557-4.661.684-1.7303191.0320277-3.4326646-.4394178-4.9-1.357-.4411698-.2848565-.853757-.6117113-1.232-.976-2.219 3.511-8.247 9.8-23.616 12.127.26808542.9979798.73773629 1.930475 1.38 2.74 3.118-.459 8.329-1.473 11.984-3.467.3141363-.1762875.6988092-.1699996 1.007016.0164608.3082068.1864603.4923115.5242743.4819586.8843461-.010353.3600718-.2135635.6867495-.5319746.8551931-3.5405711 1.7344025-7.3313248 2.9026052-11.234 3.462 1.28371 1.0259835 2.71305325 1.8550767 4.241 2.46 5.514-1.542 12.759-4.577 16.689-10.362.3138914-.4472537.9286632-.5597496 1.3805955-.2526325.4519322.3071172.5736778.9201244.2734045 1.3766325-3.635 5.35-9.756 8.5-15.1 10.326.174.046.334.1.513.142 1.9953397.4964945 4.0293689.822006 6.08.973 2.6704358-1.2686846 5.0509032-3.0738638 6.993-5.303.354843-.4236024.9858976-.4793429 1.4095-.1245.4236024.354843.4793429.9858976.1245 1.4095-1.3174003 1.5491182-2.8472067 2.9041953-4.544 4.025 2.9241388-.1378446 5.7562281-1.065747 8.195-2.685-.7344065-1.0019229-1.1305578-2.2117431-1.131-3.454.0113511-2.336437 1.3940495-4.4482729 3.531-5.393z"/>
            <path id="Shape"
                  d="m31.786 29.576 5.185-26.8c.1472768-.54245944-.021087-1.1217337-.4361847-1.50074117-.4150976-.37900747-1.0072557-.49413253-1.5341198-.29825754-.526864.19587498-.9000008.66987281-.9666955 1.22799871l-5.158 26.679c.8406351.0163385 1.6720236.1787587 2.457.48.157.06.302.141.453.212z"/>
            <path id="Shape"
                  d="m52.134 46.37c-.4230204-.0592542-.7616998-.3806581-.843-.8-.4091063-2.1318944-2.0070369-3.8388912-4.1073202-4.3876639-2.1002834-.5487727-4.3289951.1583796-5.7286798 1.8176639-.3436171.407873-.9468512.4743124-1.371.151-.6750195-.5154338-1.5017013-.7928697-2.351-.789-2.1236845.0095507-3.8493491 1.716545-3.882 3.84-.0047924.4376929-.2936876.8214008-.713.947-1.4471347.4301732-2.513481 1.660521-2.7336652 3.1540961-.2201841 1.4935752.4457567 2.9792983 1.7071932 3.8087714s2.8894218.8521494 4.173472.0581325c.4452468-.2752547 1.027423-.1605638 1.335.263 1.1650169 1.6067155 3.0043814 2.5881978 4.9876712 2.6614144 1.9832898.0732165 3.8900152-.7699725 5.1703288-2.2864144.3240115-.3803646.8790544-.4631941 1.3-.194 1.549645.9929366 3.5477482.9421332 5.0449312-.1282713s2.1916363-2.9446329 1.7533976-4.7321646c-.4382388-1.7875317-1.9208273-3.1280273-3.7433288-3.3845641zm-3.6.747c-.0626438.0118389-.1262475.0178645-.19.018-.4794177.000011-.8913901-.3402228-.982-.811-.1188168-.6178569-.5822244-1.1123864-1.1910662-1.2710569-.6088417-.1586704-1.2546715.0467804-1.6599338.5280569-.3562237.4224978-.9875022.4762236-1.41.12-.4224978-.3562237-.4762236-.9875022-.12-1.41.902743-1.0702005 2.3400097-1.5266065 3.6947936-1.1732868 1.3547839.3533198 2.3860974 1.4535172 2.6512064 2.8282868.1044392.5420227-.2500556 1.0661557-.792 1.171z"/>
            <circle id="Oval" cx="53.5" cy="33.5" r="2.5"/>
            <circle id="Oval" cx="47" cy="27" r="2"/>
            <path id="Shape"
                  d="m5 22c-.55228475 0-1-.4477153-1-1v-2c0-.5522847.44771525-1 1-1s1 .4477153 1 1v2c0 .5522847-.44771525 1-1 1z"/>
            <path id="Shape"
                  d="m5 28c-.55228475 0-1-.4477153-1-1v-2c0-.5522847.44771525-1 1-1s1 .4477153 1 1v2c0 .5522847-.44771525 1-1 1z"/>
            <path id="Shape" d="m3 24h-2c-.55228475 0-1-.4477153-1-1s.44771525-1 1-1h2c.55228475 0 1 .4477153 1 1s-.44771525 1-1 1z"/>
            <path id="Shape" d="m9 24h-2c-.55228475 0-1-.4477153-1-1s.44771525-1 1-1h2c.55228475 0 1 .4477153 1 1s-.44771525 1-1 1z"/>
            <path id="Shape"
                  d="m8 38c-.4043959-.0000863-.76893405-.2437275-.92367798-.6173454-.15474393-.373618-.06922994-.8036603.21667798-1.0896546l1.5-1.5c.39237889-.3789722 1.01608478-.3735524 1.4018186.0121814.3857338.3857338.3911536 1.0094397.0121814 1.4018186l-1.5 1.5c-.18749273.1875494-.44180519.2929434-.707.293z"/>
            <path id="Shape"
                  d="m12.5 33.5c-.4043959-.0000863-.7689341-.2437275-.923678-.6173454-.1547439-.373618-.0692299-.8036603.216678-1.0896546l1.5-1.5c.3923789-.3789722 1.0160848-.3735524 1.4018186.0121814s.3911536 1.0094397.0121814 1.4018186l-1.5 1.5c-.1874927.1875494-.4418052.2929434-.707.293z"/>
            <path id="Shape"
                  d="m14 38c-.2651948-.0000566-.5195073-.1054506-.707-.293l-1.5-1.5c-.3789722-.3923789-.3735524-1.0160848.0121814-1.4018186s1.0094397-.3911536 1.4018186-.0121814l1.5 1.5c.2859079.2859943.3714219.7160366.216678 1.0896546-.1547439.3736179-.5192821.6172591-.923678.6173454z"/>
            <path id="Shape"
                  d="m9.5 33.5c-.26519481-.0000566-.51950727-.1054506-.707-.293l-1.5-1.5c-.37897221-.3923789-.37355237-1.0160848.01218142-1.4018186.3857338-.3857338 1.00943969-.3911536 1.40181858-.0121814l1.5 1.5c.2859079.2859943.3714219.7160366.216678 1.0896546-.1547439.3736179-.5192821.6172591-.923678.6173454z"/>
            <path id="Shape"
                  d="m27 12.087c-.0586718.0004263-.1172565-.0045952-.175-.015l-17-3c-.54455276-.09637369-.90787369-.61594724-.8115-1.1605s.61594724-.90787369 1.1605-.8115l17 3c.5170457.0838759.8817538.5525237.8360595 1.0743316s-.4863051.9199345-1.0100595.9126684z"/>
            <path id="Shape"
                  d="m26 17.087c-.0586718.0004263-.1172565-.0045952-.175-.015l-10.838-1.913c-.3519066-.0621642-.6439175-.3073463-.766035-.6431884-.1221175-.3358422-.0557891-.7113221.174-.985.2297891-.273678.5881284-.4039758.940035-.3418116l10.839 1.911c.5170457.0838759.8817538.5525237.8360595 1.0743316s-.4863051.9199345-1.0100595.9126684z"/>
            <path id="Shape"
                  d="m25 22c-.0586513-.0000707-.1171922-.0050885-.175-.015l-13.1-2.313c-.5440005-.0958214-.9073214-.6144995-.8115-1.1585s.6144995-.9073214 1.1585-.8115l13.106 2.313c.5120082.0896478.8699618.5566097.8235366 1.0743295-.0464253.5177198-.4817474.9135466-1.0015366.9106705z"/>
        </g>
    </g>
</svg>