<svg height="16" viewBox="0 0 60 61" width="16" xmlns="http://www.w3.org/2000/svg">
    <g id="Page-1" fill="none" fill-rule="evenodd">
        <g id="007---Sweeping" fill="rgb(0,0,0)" fill-rule="nonzero" transform="translate(0 -1)">
            <path fill="#41B7FE" id="Shape"
                  d="m28.775 31.218c-.2173502.075755-.4300516.1642415-.637.265-1.5108166.799035-2.6765953 2.1238319-3.277 3.724-.986 2.3-5.557 10.02-22.988 12.662-.56386353.0785412-1.06831927.3916016-1.389.862-.31497464.4646017-.41818294 1.0409691-.284 1.586.38831721 1.4077178 1.08248785 2.7124035 2.033 3.821.06332514.113098.14786915.2129211.249.294 1.81647157 1.944127 4.06513064 3.4332984 6.564 4.347.027.011.052.024.08.033 1.1833122.4660999 2.3963244.8529543 3.631 1.158 2.1831248.5396882 4.4098763.8843762 6.654 1.03.03994.0081806.080352.0138583.121.017.011 0 .022-.007.032-.007.59.034 1.189.058 1.8.058 3.873 0 8.145-.781 11.575-3.337 1.6508945 1.1260305 3.7618563 1.3329801 5.6.549 1.5354324 1.716277 3.7046248 2.7318203 6.0060926 2.8118516 2.3014679.0800314 4.5359643-.7823778 6.1869074-2.3878516 2.2359148 1.0548437 4.8766565.7499566 6.8133764-.7866391s2.8340763-4.0388396 2.3152689-6.4560382c-.5188075-2.4171986-2.3639476-4.3308158-4.7606453-4.9373227-.7348057-2.5557502-2.7467993-4.5448463-5.3107921-5.2503526s-5.3103554-.0257158-7.2492079 1.7943526c-1.1172318-.6211091-2.413332-.8413014-3.673-.624-.0812507-1.5960342-.2572273-3.1858335-.527-4.761-.3194606-1.9091616-1.2871242-3.6498967-2.74-4.929l5.333-27.588c.1823717-.90389243-.0049081-1.8431724-.52-2.608-.7846118-1.18296637-2.2069459-1.77365697-3.598752-1.49454971-1.3918061.27910727-2.4764147 1.37253018-2.744248 2.76654971zm13.309 13.934c.4244038.3230744 1.0276701.2561914 1.371-.152 1.3992652-1.6592223 3.6274608-2.3667195 5.7275933-1.8186268 2.1001324.5480927 3.6984187 2.2542254 4.1084067 4.3856268.0813002.4193419.4199796.7407458.843.8 1.8225015.2565368 3.30509 1.5970324 3.7433288 3.3845641.4382387 1.7875317-.2562146 3.6617601-1.7533976 4.7321646s-3.4952862 1.1212079-5.0449312.1282713c-.4209456-.2691941-.9759885-.1863646-1.3.194-1.2803136 1.5164419-3.187039 2.3596309-5.1703288 2.2864144-1.9832898-.0732166-3.8226543-1.0546989-4.9876712-2.6614144-.307577-.4235638-.8897532-.5382547-1.335-.263-1.2840502.7940169-2.9120355.7713406-4.173472-.0581325s-1.9273773-2.3151962-1.7071932-3.8087714c.2201842-1.4935751 1.2865305-2.7239229 2.7336652-3.1540961.4193124-.1255992.7082076-.5093071.713-.947.0326509-2.123455 1.7583155-3.8304493 3.882-3.84.849306-.0027877 1.6756365.2757032 2.35.792zm-8.184 2.326c-2.1381235.9438288-3.5221218 3.0558557-3.534 5.393.0013123 1.2425924.3985248 2.4524443 1.134 3.454-2.4382175 1.6176781-5.2691787 2.5445138-8.192 2.682 1.6967933-1.1208047 3.2265997-2.4758818 4.544-4.025.3540145-.4244308.2969308-1.0554854-.1275-1.4095-.4244308-.3540145-1.0554855-.2969308-1.4095.1275-1.94239 2.2280534-4.3228365 4.0321956-6.993 5.3-2.0506311-.150994-4.0846603-.4765055-6.08-.973-.179-.045-.339-.1-.513-.142 5.344-1.828 11.465-4.976 15.1-10.326.3002733-.4565081.1785277-1.0695153-.2734045-1.3766325-.4519323-.3071171-1.0667041-.1946212-1.3805955.2526325-3.93 5.788-11.175 8.823-16.689 10.365-1.52794675-.6049233-2.95729-1.4340165-4.241-2.46 3.90301759-.5592929 7.6941163-1.727498 11.235-3.462.3184111-.1684436.5216216-.4951213.5319746-.8551931.0103529-.3600718-.1737518-.6978858-.4819586-.8843461-.3082068-.1864604-.6928797-.1927483-1.007016-.0164608-3.655 1.994-8.866 3.008-11.984 3.467-.64226371-.809525-1.11191458-1.7420202-1.38-2.74 15.369-2.331 21.4-8.616 23.616-12.127.378243.3642887.7908302.6911435 1.232.976 1.4673354.9175822 3.1696809 1.3890277 4.9 1.357.113 0 .225 0 .339-.006 1.4651251-.0246181 2.9197145-.2528022 4.322-.678.1729649 1.2440287.2781203 2.4965463.315 3.752-1.6244932.9011008-2.7297237 2.5146707-2.983 4.355zm2.312-10.109c-1.3005622.4319193-2.65973.661595-4.03.681-1.4340165.0839591-2.859145-.2752906-4.082-1.029-.5009566-.3155725-.9491093-.7080435-1.328-1.163.4235658-1.0982764 1.2210387-2.0118999 2.252-2.58 1.1390413-.5260758 2.4481647-.5424399 3.6-.045 1.782327.7343005 3.1126921 2.2678541 3.588 4.136zm-.178-33.16c.1574421-.80662524.9346552-1.33636083 1.743-1.188.3975845.07740934.7478283.31030524.973.647.2193931.32620443.2989868.72669399.221 1.112l-5.185 26.8c-.151-.071-.3-.152-.453-.212-.7849764-.3012413-1.6163649-.4636615-2.457-.48z"/>
            <path fill="#41B7FE" id="Shape"
                  d="m46.512 47.581c.4052623-.4812765 1.0510921-.6867273 1.6599338-.5280569.6088418.1586705 1.0722494.6532 1.1910662 1.2710569.0906099.4707772.5025823.811011.982.811.0637525-.0001355.1273562-.0061611.19-.018.2604455-.0501204.4903124-.2016525.6390298-.4212591.1487173-.2196066.2041023-.4892976.1539702-.7497409-.265109-1.3747696-1.2964225-2.474967-2.6512064-2.8282868-1.3547839-.3533197-2.7920506.1030863-3.6947936 1.1732868-.3562236.4224978-.3024978 1.0537763.12 1.41.4224978.3562236 1.0537763.3024978 1.41-.12z"/>
            <path fill="#41B7FE" id="Shape"
                  d="m52 35.5c0 1.9329966 1.5670034 3.5 3.5 3.5s3.5-1.5670034 3.5-3.5-1.5670034-3.5-3.5-3.5-3.5 1.5670034-3.5 3.5zm5 0c0 .8284271-.6715729 1.5-1.5 1.5s-1.5-.6715729-1.5-1.5.6715729-1.5 1.5-1.5 1.5.6715729 1.5 1.5z"/>
            <path fill="#41B7FE" id="Shape"
                  d="m49 32c1.6568542 0 3-1.3431458 3-3s-1.3431458-3-3-3-3 1.3431458-3 3 1.3431458 3 3 3zm0-4c.5522847 0 1 .4477153 1 1s-.4477153 1-1 1-1-.4477153-1-1 .4477153-1 1-1z"/>
            <path fill="#41B7FE" id="Shape"
                  d="m7 24c.55228475 0 1-.4477153 1-1v-2c0-.5522847-.44771525-1-1-1s-1 .4477153-1 1v2c0 .5522847.44771525 1 1 1z"/>
            <path fill="#41B7FE"  id="Shape" d="m8 29v-2c0-.5522847-.44771525-1-1-1s-1 .4477153-1 1v2c0 .5522847.44771525 1 1 1s1-.4477153 1-1z"/>
            <path fill="#41B7FE"  id="Shape" d="m3 26h2c.55228475 0 1-.4477153 1-1s-.44771525-1-1-1h-2c-.55228475 0-1 .4477153-1 1s.44771525 1 1 1z"/>
            <path fill="#41B7FE"  id="Shape" d="m9 26h2c.5522847 0 1-.4477153 1-1s-.4477153-1-1-1h-2c-.55228475 0-1 .4477153-1 1s.44771525 1 1 1z"/>
            <path fill="#41B7FE"  id="Shape"
                  d="m10.793 36.793-1.5 1.5c-.25995658.2510745-.3642126.6228779-.27269716.9725073.09151544.3496295.3645604.6226744.71418984.7141899.34962942.0915154.72143282-.0127406.97250732-.2726972l1.5-1.5c.3789722-.3923789.3735524-1.0160848-.0121814-1.4018186s-1.0094397-.3911536-1.4018186-.0121814z"/>
            <path fill="#41B7FE" id="Shape"
                  d="m16.707 32.293c-.3904999-.3903819-1.0235001-.3903819-1.414 0l-1.5 1.5c-.2599566.2510745-.3642126.6228779-.2726972.9725073.0915155.3496295.3645604.6226744.7141899.7141899.3496294.0915154.7214328-.0127406.9725073-.2726972l1.5-1.5c.3903819-.3904999.3903819-1.0235001 0-1.414z"/>
            <path fill="#41B7FE"  id="Shape"
                  d="m15.207 36.793c-.3923789-.3789722-1.0160848-.3735524-1.4018186.0121814s-.3911536 1.0094397-.0121814 1.4018186l1.5 1.5c.3923789.3789722 1.0160848.3735524 1.4018186-.0121814s.3911536-1.0094397.0121814-1.4018186z"/>
            <path fill="#41B7FE"  id="Shape"
                  d="m12.207 33.793-1.5-1.5c-.3923789-.3789722-1.01608478-.3735524-1.40181858.0121814-.38573379.3857338-.39115363 1.0094397-.01218142 1.4018186l1.5 1.5c.3923789.3789722 1.0160848.3735524 1.4018186-.0121814s.3911536-1.0094397.0121814-1.4018186z"/>
            <path id="Shape"
                  d="m11.826 11.072 17 3c.0577435.0104048.1163282.0154263.175.015.5166541-.0026333.9462418-.3984113.9911231-.9131191.0448813-.5147077-.3097221-.9788653-.8181231-1.0708809l-17-3c-.5373679-.08283015-1.0424504.27886971-1.1370796.81428584-.0946291.53541616.2558743 1.04833176.7890796 1.15471416z"/>
            <path id="Shape"
                  d="m27.826 19.072c.0577435.0104048.1163282.0154263.175.015.5166541-.0026333.9462418-.3984113.9911231-.9131191.0448813-.5147077-.3097221-.9788653-.8181231-1.0708809l-10.839-1.914c-.5440005-.0960975-1.0629025.2669995-1.159.811s.2669995 1.0629025.811 1.159z"/>
            <path id="Shape"
                  d="m12.91 20.513c-.0462167.2612467.0132745.5301517.1653782.7475231s.3843519.3653911.6456218.4114769l13.105 2.313c.0574787.0098557.1156826.0148732.174.015.5188038.0002315.951625-.3963308.9966698-.9131754.0450449-.5168446-.312648-.982303-.8236698-1.0718246l-13.105-2.315c-.2613874-.0458829-.5302936.0140168-.7474929.1665064-.2171993.1524897-.3648768.3850619-.4105071.6464936z"/>
        </g>
    </g>
</svg>