<svg height="16" viewBox="1 -21 511.999 511" width="16" xmlns="http://www.w3.org/2000/svg">
    <g id="Cookie" fill="#000000" fill-rule="evenodd">
        <path fill="#41B7FE" d="m430.191406 49.476562c0 4.15625-3.371094 7.527344-7.527344 7.527344s-7.527343-3.371094-7.527343-7.527344 3.371093-7.527343 7.527343-7.527343 7.527344 3.371093 7.527344 7.527343zm0 0"/>
        <path fill="#41B7FE" d="m400.269531 49.476562c0 4.15625-3.371093 7.527344-7.527343 7.527344s-7.527344-3.371094-7.527344-7.527344 3.371094-7.527343 7.527344-7.527343 7.527343 3.371093 7.527343 7.527343zm0 0"/>
        <path fill="#41B7FE" d="m370.347656 49.476562c0 4.15625-3.371094 7.527344-7.527344 7.527344s-7.527343-3.371094-7.527343-7.527344 3.371093-7.527343 7.527343-7.527343 7.527344 3.371093 7.527344 7.527343zm0 0"/>
        <path fill="#41B7FE" d="m445.949219 354.328125c-3.1875-2.644531-7.917969-2.199219-10.5625.988281l-23.339844 28.15625-7.21875-9.027344c-2.585937-3.238281-7.304687-3.765624-10.539063-1.179687-3.238281 2.585937-3.765624 7.304687-1.179687 10.539063l12.96875 16.230468c1.410156 1.761719 3.535156 2.796875 5.792969 2.816406h.066406c2.230469 0 4.347656-.992187 5.773438-2.710937l29.222656-35.253906c2.644531-3.1875 2.203125-7.914063-.984375-10.558594zm0 0"/>
        <path fill="#41B7FE" d="m247.949219 41.992188h-195.65625c-4.140625 0-7.5 3.359374-7.5 7.5 0 4.144531 3.359375 7.5 7.5 7.5h195.65625c4.140625 0 7.5-3.355469 7.5-7.5 0-4.140626-3.359375-7.5-7.5-7.5zm0 0"/>
        <path fill="#41B7FE" d="m168.101562 218.984375c-15.4375 0-28 12.558594-28 28 0 15.4375 12.5625 28 28 28s28-12.5625 28-28c0-15.441406-12.5625-28-28-28zm0 41c-7.167968 0-13-5.832031-13-13s5.832032-13 13-13c7.167969 0 13 5.832031 13 13s-5.832031 13-13 13zm0 0"/>
        <path fill="#41B7FE" d="m284.609375 243.695312c0-19.175781-15.601563-34.777343-34.777344-34.777343s-34.777343 15.601562-34.777343 34.777343c0 19.179688 15.601562 34.78125 34.777343 34.78125s34.777344-15.601562 34.777344-34.78125zm-34.777344 19.78125c-10.90625 0-19.777343-8.875-19.777343-19.78125s8.871093-19.777343 19.777343-19.777343 19.777344 8.871093 19.777344 19.777343-8.871094 19.78125-19.777344 19.78125zm0 0"/>
        <path fill="#41B7FE" d="m275.082031 298.785156c-12.902343 0-23.398437 10.496094-23.398437 23.398438s10.496094 23.402344 23.398437 23.402344c12.902344 0 23.398438-10.5 23.398438-23.402344s-10.496094-23.398438-23.398438-23.398438zm0 31.800782c-4.632812 0-8.398437-3.769532-8.398437-8.402344 0-4.628906 3.765625-8.398438 8.398437-8.398438 4.632813 0 8.398438 3.769532 8.398438 8.398438 0 4.632812-3.765625 8.402344-8.398438 8.402344zm0 0"/>
        <path fill="#41B7FE" d="m468.035156 288.285156h-100.359375c.671875-5.402344 1.011719-10.851562 1.011719-16.289062 0-20.722656-4.714844-40.558594-14.011719-58.945313-2.890625-5.714843-9.496093-8.476562-15.714843-6.5625-5.515626 1.695313-11.363282 1.703125-16.910157.019531-6.953125-2.109374-12.824219-6.714843-16.53125-12.96875-2.992187-5.046874-8.730469-7.832031-14.628906-7.105468-7.1875.886718-14.363281.265625-21.339844-1.851563-16.125-4.890625-28.898437-17.390625-34.164062-33.433593-1.964844-5.980469-7.90625-9.738282-14.140625-8.957032-66.210938 8.375-115.332032 65.101563-114.261719 131.945313.546875 34.039062 14.214844 66.128906 38.488281 90.363281 24.269532 24.230469 56.382813 37.847656 90.421875 38.339844.628907.007812 1.253907.015625 1.882813.015625 30.246094 0 59.515625-10.542969 82.75-29.46875v52.519531c0 24.242188 19.726562 43.964844 43.964844 43.964844h103.542968c24.242188 0 43.964844-19.722656 43.964844-43.964844v-93.65625c0-24.242188-19.722656-43.964844-43.964844-43.964844zm-268.324218 92.332032c-1.230469 0-2.417969-.183594-3.535157-.523438-.632812-.246094-1.265625-.496094-1.890625-.75-4.007812-2-6.769531-6.144531-6.769531-10.921875 0-6.722656 5.472656-12.195313 12.195313-12.195313 6.722656 0 12.195312 5.472657 12.195312 12.195313 0 6.726563-5.46875 12.195313-12.195312 12.195313zm119.007812-103.535157c.574219 9.453125 4.796875 18.113281 11.886719 24.390625.457031.40625.929687.800782 1.40625 1.183594-7.128907 7.816406-11.480469 18.207031-11.480469 29.59375v20.875c-22.144531 22.554688-52.726562 35.171875-84.421875 34.71875-5.425781-.078125-10.800781-.535156-16.085937-1.355469 4.277343-4.808593 6.882812-11.136719 6.882812-18.0625 0-14.996093-12.203125-27.195312-27.195312-27.195312-14.714844 0-26.738282 11.746093-27.183594 26.355469-5.832032-4.015626-11.339844-8.589844-16.460938-13.699219-21.496094-21.464844-33.601562-49.871094-34.082031-79.984375-.941406-58.683594 41.792969-108.554688 99.640625-116.628906 7.074219 19.988281 23.257812 35.503906 43.570312 41.664062 8.976563 2.722656 18.222657 3.527344 27.5 2.390625 5.625 9.417969 14.5 16.351563 25 19.535156 7.953126 2.410157 16.320313 2.53125 24.292969.363281 2.949219 6.027344 5.34375 12.230469 7.183594 18.582032-8.25 1.140625-15.90625 5.175781-21.613281 11.621094-6.277344 7.089843-9.414063 16.199218-8.839844 25.652343zm20.070312-15.710937c3.554688-4.011719 8.414063-6.402344 13.605469-6.824219.859375 5.722656 1.292969 11.542969 1.292969 17.449219 0 6.027344-.472656 12.066406-1.402344 18.011718-2.667968.773438-5.234375 1.792969-7.671875 3.035157-1.460937-.761719-2.820312-1.699219-4.066406-2.800781-4.089844-3.621094-6.523437-8.621094-6.855469-14.070313-.332031-5.453125 1.480469-10.710937 5.097656-14.800781zm158.210938 164.535156c0 15.972656-12.992188 28.964844-28.964844 28.964844h-103.539062c-15.972656 0-28.964844-12.992188-28.964844-28.964844v-93.65625c0-15.972656 12.992188-28.964844 28.964844-28.964844h103.539062c15.972656 0 28.964844 12.992188 28.964844 28.964844zm0 0"/>
        <path fill="#41B7FE" d="m471.191406 345.097656c-4.128906-1.699218-9.6875-5.234375-10.304687-16.238281-.3125-5.664063-5.015625-10.101563-10.703125-10.101563h-64.671875c-5.6875 0-10.390625 4.433594-10.703125 10.097657-.617188 11.007812-6.175782 14.542969-10.304688 16.242187-4.089844 1.6875-6.75 5.789063-6.621094 10.210938.65625 22.855468 10.519532 45.566406 28.519532 65.683594 13.414062 14.992187 27.0625 23.824218 28.824218 24.480468.847657.3125 1.734376.472656 2.621094.472656.886719 0 1.773438-.15625 2.621094-.472656 1.761719-.65625 15.410156-9.488281 28.824219-24.480468 18-20.117188 27.863281-42.828126 28.523437-65.6875.125-4.421876-2.535156-8.519532-6.625-10.207032zm-53.34375 84.285156c-10.933594-7.921874-42.292968-33.828124-44.835937-71.714843 9.035156-4.722657 14.726562-13.042969 16.359375-23.910157h56.953125c1.636719 10.867188 7.324219 19.191407 16.363281 23.910157-2.542969 37.890625-33.902344 63.792969-44.839844 71.714843zm0 0"/>
        <path d="m315.796875 454.570312h-287.273437c-7.457032 0-13.523438-6.066406-13.523438-13.519531v-342.5625h439.074219v167.273438c0 4.140625 3.355469 7.5 7.5 7.5 4.140625 0 7.5-3.359375 7.5-7.5v-236.738281c0-15.730469-12.796875-28.523438-28.523438-28.523438h-412.027343c-15.726563 0-28.523438 12.792969-28.523438 28.523438v412.023437c0 15.730469 12.796875 28.523437 28.523438 28.523437h287.273437c4.140625 0 7.5-3.355468 7.5-7.5 0-4.144531-3.359375-7.5-7.5-7.5zm-300.796875-425.546874c0-7.457032 6.066406-13.523438 13.523438-13.523438h412.027343c7.457031 0 13.519531 6.066406 13.519531 13.523438v54.464843h-439.070312zm0 0"/>
    </g>
</svg>