<svg xmlns="http://www.w3.org/2000/svg" width="500" zoomAndPan="magnify"
     viewBox="0 0 375 374.999991" height="500" preserveAspectRatio="xMidYMid meet" version="1.0">
    <defs>
        <clipPath id="558f427586">
            <path d="M 32.425781 106.960938 L 122.695312 106.960938 L 122.695312 209.351562 L 32.425781 209.351562 Z M 32.425781 106.960938 "
                  clip-rule="nonzero"/>
        </clipPath>
        <clipPath id="b3c3a33b57">
            <path d="M 114.414062 106.960938 L 325.898438 106.960938 L 325.898438 209.179688 L 114.414062 209.179688 Z M 114.414062 106.960938 "
                  clip-rule="nonzero"/>
        </clipPath>
        <clipPath id="eded23c3ce">
            <path d="M 53.679688 137.21875 L 94.214844 137.21875 L 94.214844 177.75 L 53.679688 177.75 Z M 53.679688 137.21875 "
                  clip-rule="nonzero"/>
        </clipPath>
        <clipPath id="be0882103f">
            <path d="M 88.28125 143.152344 C 84.453125 139.324219 79.363281 137.21875 73.949219 137.21875 C 68.535156 137.21875 63.445312 139.324219 59.617188 143.152344 C 55.789062 146.980469 53.679688 152.070312 53.679688 157.484375 C 53.679688 162.898438 55.789062 167.988281 59.617188 171.816406 C 63.445312 175.644531 68.535156 177.75 73.949219 177.75 C 77.65625 177.75 81.28125 176.742188 84.433594 174.832031 C 85.183594 174.378906 85.421875 173.402344 84.96875 172.65625 C 84.515625 171.90625 83.542969 171.667969 82.792969 172.121094 C 80.257812 173.65625 77.359375 174.503906 74.386719 174.578125 L 81.21875 162.265625 C 82.128906 160.890625 82.65625 159.242188 82.65625 157.476562 C 82.65625 155.375 81.910156 153.449219 80.667969 151.941406 L 90.128906 151.941406 C 90.722656 153.679688 91.050781 155.546875 91.050781 157.484375 C 91.050781 160.855469 90.046875 164.136719 88.148438 166.976562 C 87.664062 167.703125 87.859375 168.6875 88.585938 169.171875 C 89.3125 169.65625 90.296875 169.460938 90.78125 168.734375 C 93.027344 165.375 94.214844 161.484375 94.214844 157.484375 C 94.214844 152.070312 92.109375 146.980469 88.28125 143.152344 Z M 56.847656 157.484375 C 56.847656 154.433594 57.652344 151.570312 59.054688 149.085938 L 65.949219 160.921875 C 67.289062 164.011719 70.371094 166.183594 73.949219 166.183594 C 74.476562 166.183594 74.996094 166.136719 75.5 166.046875 L 70.910156 174.316406 C 62.925781 172.878906 56.847656 165.878906 56.847656 157.484375 Z M 79.492188 157.476562 C 79.492188 158.425781 79.25 159.324219 78.824219 160.105469 C 78.761719 160.179688 78.707031 160.261719 78.660156 160.347656 L 78.511719 160.617188 C 77.507812 162.066406 75.835938 163.015625 73.949219 163.015625 C 72.015625 163.015625 70.3125 162.023438 69.320312 160.519531 C 69.285156 160.386719 69.230469 160.261719 69.160156 160.136719 L 68.792969 159.507812 C 68.542969 158.878906 68.40625 158.191406 68.40625 157.476562 C 68.40625 154.417969 70.894531 151.933594 73.949219 151.933594 C 73.96875 151.933594 73.992188 151.933594 74.015625 151.933594 C 74.070312 151.9375 74.128906 151.941406 74.1875 151.941406 L 74.277344 151.941406 C 77.179688 152.113281 79.492188 154.53125 79.492188 157.476562 Z M 74.359375 148.777344 C 74.222656 148.769531 74.085938 148.765625 73.949219 148.765625 C 70.234375 148.765625 67.058594 151.101562 65.808594 154.382812 L 61.066406 146.25 C 64.203125 142.65625 68.816406 140.382812 73.949219 140.382812 C 80.199219 140.382812 85.679688 143.753906 88.660156 148.777344 Z M 74.359375 148.777344 "
                  clip-rule="nonzero"/>
        </clipPath>
        <linearGradient x1="-0.0000333052" gradientTransform="matrix(0.0791686, 0, 0, -0.0791686, 53.681377, 177.909876)" y1="258"
                        x2="511.999944" gradientUnits="userSpaceOnUse" y2="258" id="9f05aef7ab">
            <stop stop-opacity="1" stop-color="rgb(0%, 94.898987%, 99.598694%)" offset="0"/>
            <stop stop-opacity="1" stop-color="rgb(0.222778%, 94.676208%, 99.598694%)" offset="0.00390625"/>
            <stop stop-opacity="1" stop-color="rgb(0.445557%, 94.45343%, 99.598694%)" offset="0.0078125"/>
            <stop stop-opacity="1" stop-color="rgb(0.668335%, 94.229126%, 99.598694%)" offset="0.0117188"/>
            <stop stop-opacity="1" stop-color="rgb(0.892639%, 94.006348%, 99.598694%)" offset="0.015625"/>
            <stop stop-opacity="1" stop-color="rgb(1.10321%, 93.80188%, 99.598694%)" offset="0.0195313"/>
            <stop stop-opacity="1" stop-color="rgb(1.315308%, 93.597412%, 99.598694%)" offset="0.0234375"/>
            <stop stop-opacity="1" stop-color="rgb(1.499939%, 93.435669%, 99.598694%)" offset="0.03125"/>
            <stop stop-opacity="1" stop-color="rgb(1.870728%, 93.110657%, 99.598694%)" offset="0.0390625"/>
            <stop stop-opacity="1" stop-color="rgb(2.23999%, 92.785645%, 99.598694%)" offset="0.046875"/>
            <stop stop-opacity="1" stop-color="rgb(2.610779%, 92.462158%, 99.598694%)" offset="0.0546875"/>
            <stop stop-opacity="1" stop-color="rgb(2.981567%, 92.137146%, 99.598694%)" offset="0.0625"/>
            <stop stop-opacity="1" stop-color="rgb(3.352356%, 91.812134%, 99.598694%)" offset="0.0703125"/>
            <stop stop-opacity="1" stop-color="rgb(3.723145%, 91.487122%, 99.598694%)" offset="0.078125"/>
            <stop stop-opacity="1" stop-color="rgb(4.092407%, 91.163635%, 99.598694%)" offset="0.0859375"/>
            <stop stop-opacity="1" stop-color="rgb(4.463196%, 90.838623%, 99.598694%)" offset="0.09375"/>
            <stop stop-opacity="1" stop-color="rgb(4.833984%, 90.513611%, 99.598694%)" offset="0.101562"/>
            <stop stop-opacity="1" stop-color="rgb(5.204773%, 90.190125%, 99.598694%)" offset="0.109375"/>
            <stop stop-opacity="1" stop-color="rgb(5.575562%, 89.865112%, 99.598694%)" offset="0.117188"/>
            <stop stop-opacity="1" stop-color="rgb(5.94635%, 89.5401%, 99.598694%)" offset="0.125"/>
            <stop stop-opacity="1" stop-color="rgb(6.315613%, 89.215088%, 99.598694%)" offset="0.132812"/>
            <stop stop-opacity="1" stop-color="rgb(6.686401%, 88.891602%, 99.598694%)" offset="0.140625"/>
            <stop stop-opacity="1" stop-color="rgb(7.05719%, 88.566589%, 99.598694%)" offset="0.148438"/>
            <stop stop-opacity="1" stop-color="rgb(7.427979%, 88.241577%, 99.598694%)" offset="0.15625"/>
            <stop stop-opacity="1" stop-color="rgb(7.798767%, 87.918091%, 99.598694%)" offset="0.164063"/>
            <stop stop-opacity="1" stop-color="rgb(8.169556%, 87.593079%, 99.598694%)" offset="0.171875"/>
            <stop stop-opacity="1" stop-color="rgb(8.538818%, 87.268066%, 99.598694%)" offset="0.179688"/>
            <stop stop-opacity="1" stop-color="rgb(8.909607%, 86.94458%, 99.598694%)" offset="0.1875"/>
            <stop stop-opacity="1" stop-color="rgb(9.280396%, 86.619568%, 99.598694%)" offset="0.195312"/>
            <stop stop-opacity="1" stop-color="rgb(9.651184%, 86.294556%, 99.598694%)" offset="0.203125"/>
            <stop stop-opacity="1" stop-color="rgb(10.021973%, 85.969543%, 99.598694%)" offset="0.210938"/>
            <stop stop-opacity="1" stop-color="rgb(10.391235%, 85.646057%, 99.598694%)" offset="0.21875"/>
            <stop stop-opacity="1" stop-color="rgb(10.762024%, 85.321045%, 99.598694%)" offset="0.226562"/>
            <stop stop-opacity="1" stop-color="rgb(11.132812%, 84.996033%, 99.598694%)" offset="0.234375"/>
            <stop stop-opacity="1" stop-color="rgb(11.503601%, 84.672546%, 99.598694%)" offset="0.242188"/>
            <stop stop-opacity="1" stop-color="rgb(11.87439%, 84.347534%, 99.598694%)" offset="0.25"/>
            <stop stop-opacity="1" stop-color="rgb(12.245178%, 84.022522%, 99.598694%)" offset="0.257812"/>
            <stop stop-opacity="1" stop-color="rgb(12.614441%, 83.69751%, 99.598694%)" offset="0.265625"/>
            <stop stop-opacity="1" stop-color="rgb(12.985229%, 83.374023%, 99.598694%)" offset="0.273438"/>
            <stop stop-opacity="1" stop-color="rgb(13.356018%, 83.049011%, 99.598694%)" offset="0.28125"/>
            <stop stop-opacity="1" stop-color="rgb(13.726807%, 82.723999%, 99.598694%)" offset="0.289063"/>
            <stop stop-opacity="1" stop-color="rgb(14.076233%, 82.418823%, 99.598694%)" offset="0.296875"/>
            <stop stop-opacity="1" stop-color="rgb(14.379883%, 82.151794%, 99.598694%)" offset="0.304688"/>
            <stop stop-opacity="1" stop-color="rgb(14.660645%, 81.903076%, 99.598694%)" offset="0.3125"/>
            <stop stop-opacity="1" stop-color="rgb(14.941406%, 81.654358%, 99.598694%)" offset="0.320313"/>
            <stop stop-opacity="1" stop-color="rgb(15.223694%, 81.40564%, 99.598694%)" offset="0.328125"/>
            <stop stop-opacity="1" stop-color="rgb(15.504456%, 81.156921%, 99.598694%)" offset="0.335938"/>
            <stop stop-opacity="1" stop-color="rgb(15.786743%, 80.908203%, 99.598694%)" offset="0.34375"/>
            <stop stop-opacity="1" stop-color="rgb(16.067505%, 80.661011%, 99.598694%)" offset="0.351563"/>
            <stop stop-opacity="1" stop-color="rgb(16.348267%, 80.412292%, 99.598694%)" offset="0.359375"/>
            <stop stop-opacity="1" stop-color="rgb(16.630554%, 80.163574%, 99.598694%)" offset="0.367188"/>
            <stop stop-opacity="1" stop-color="rgb(16.911316%, 79.914856%, 99.598694%)" offset="0.375"/>
            <stop stop-opacity="1" stop-color="rgb(17.193604%, 79.666138%, 99.598694%)" offset="0.382813"/>
            <stop stop-opacity="1" stop-color="rgb(17.474365%, 79.418945%, 99.598694%)" offset="0.390625"/>
            <stop stop-opacity="1" stop-color="rgb(17.755127%, 79.170227%, 99.598694%)" offset="0.398438"/>
            <stop stop-opacity="1" stop-color="rgb(18.037415%, 78.921509%, 99.598694%)" offset="0.40625"/>
            <stop stop-opacity="1" stop-color="rgb(18.318176%, 78.672791%, 99.598694%)" offset="0.414063"/>
            <stop stop-opacity="1" stop-color="rgb(18.600464%, 78.424072%, 99.598694%)" offset="0.421875"/>
            <stop stop-opacity="1" stop-color="rgb(18.881226%, 78.175354%, 99.598694%)" offset="0.429688"/>
            <stop stop-opacity="1" stop-color="rgb(19.161987%, 77.928162%, 99.598694%)" offset="0.4375"/>
            <stop stop-opacity="1" stop-color="rgb(19.444275%, 77.679443%, 99.598694%)" offset="0.445313"/>
            <stop stop-opacity="1" stop-color="rgb(19.725037%, 77.430725%, 99.598694%)" offset="0.453125"/>
            <stop stop-opacity="1" stop-color="rgb(20.007324%, 77.182007%, 99.598694%)" offset="0.460938"/>
            <stop stop-opacity="1" stop-color="rgb(20.288086%, 76.933289%, 99.598694%)" offset="0.46875"/>
            <stop stop-opacity="1" stop-color="rgb(20.568848%, 76.686096%, 99.598694%)" offset="0.476563"/>
            <stop stop-opacity="1" stop-color="rgb(20.851135%, 76.437378%, 99.598694%)" offset="0.484375"/>
            <stop stop-opacity="1" stop-color="rgb(21.131897%, 76.18866%, 99.598694%)" offset="0.492188"/>
            <stop stop-opacity="1" stop-color="rgb(21.412659%, 75.939941%, 99.598694%)" offset="0.5"/>
            <stop stop-opacity="1" stop-color="rgb(21.694946%, 75.691223%, 99.598694%)" offset="0.507812"/>
            <stop stop-opacity="1" stop-color="rgb(21.975708%, 75.442505%, 99.598694%)" offset="0.515625"/>
            <stop stop-opacity="1" stop-color="rgb(22.257996%, 75.195312%, 99.598694%)" offset="0.523438"/>
            <stop stop-opacity="1" stop-color="rgb(22.538757%, 74.946594%, 99.598694%)" offset="0.53125"/>
            <stop stop-opacity="1" stop-color="rgb(22.819519%, 74.697876%, 99.598694%)" offset="0.539062"/>
            <stop stop-opacity="1" stop-color="rgb(23.101807%, 74.449158%, 99.598694%)" offset="0.546875"/>
            <stop stop-opacity="1" stop-color="rgb(23.377991%, 74.205017%, 99.598694%)" offset="0.554688"/>
            <stop stop-opacity="1" stop-color="rgb(23.603821%, 74.002075%, 99.598694%)" offset="0.5625"/>
            <stop stop-opacity="1" stop-color="rgb(23.869324%, 73.754883%, 99.598694%)" offset="0.578125"/>
            <stop stop-opacity="1" stop-color="rgb(24.224854%, 73.425293%, 99.598694%)" offset="0.59375"/>
            <stop stop-opacity="1" stop-color="rgb(24.580383%, 73.097229%, 99.598694%)" offset="0.609375"/>
            <stop stop-opacity="1" stop-color="rgb(24.934387%, 72.767639%, 99.598694%)" offset="0.625"/>
            <stop stop-opacity="1" stop-color="rgb(25.289917%, 72.438049%, 99.598694%)" offset="0.640625"/>
            <stop stop-opacity="1" stop-color="rgb(25.645447%, 72.108459%, 99.598694%)" offset="0.65625"/>
            <stop stop-opacity="1" stop-color="rgb(25.999451%, 71.77887%, 99.598694%)" offset="0.671875"/>
            <stop stop-opacity="1" stop-color="rgb(26.35498%, 71.450806%, 99.598694%)" offset="0.6875"/>
            <stop stop-opacity="1" stop-color="rgb(26.71051%, 71.121216%, 99.598694%)" offset="0.703125"/>
            <stop stop-opacity="1" stop-color="rgb(27.06604%, 70.791626%, 99.598694%)" offset="0.71875"/>
            <stop stop-opacity="1" stop-color="rgb(27.420044%, 70.462036%, 99.598694%)" offset="0.734375"/>
            <stop stop-opacity="1" stop-color="rgb(27.775574%, 70.132446%, 99.598694%)" offset="0.75"/>
            <stop stop-opacity="1" stop-color="rgb(28.131104%, 69.804382%, 99.598694%)" offset="0.765625"/>
            <stop stop-opacity="1" stop-color="rgb(28.486633%, 69.474792%, 99.598694%)" offset="0.78125"/>
            <stop stop-opacity="1" stop-color="rgb(28.83606%, 69.151306%, 99.598694%)" offset="0.796875"/>
            <stop stop-opacity="1" stop-color="rgb(29.084778%, 68.934631%, 99.598694%)" offset="0.8125"/>
            <stop stop-opacity="1" stop-color="rgb(29.31366%, 68.762207%, 99.598694%)" offset="0.84375"/>
            <stop stop-opacity="1" stop-color="rgb(29.620361%, 68.533325%, 99.598694%)" offset="0.875"/>
            <stop stop-opacity="1" stop-color="rgb(29.927063%, 68.302917%, 99.598694%)" offset="0.90625"/>
            <stop stop-opacity="1" stop-color="rgb(30.232239%, 68.07251%, 99.598694%)" offset="0.9375"/>
            <stop stop-opacity="1" stop-color="rgb(30.53894%, 67.843628%, 99.598694%)" offset="0.96875"/>
            <stop stop-opacity="1" stop-color="rgb(30.845642%, 67.61322%, 99.598694%)" offset="1"/>
        </linearGradient>
    </defs>
    <g clip-path="url(#558f427586)">
        <path fill="#d9e8fa"
              d="M 32.425781 106.960938 L 122.695312 106.960938 L 122.695312 209.222656 L 32.425781 209.222656 Z M 32.425781 106.960938 "
              fill-opacity="1" fill-rule="nonzero"/>
    </g>
    <g clip-path="url(#b3c3a33b57)">
        <path fill="#d9e8fa"
              d="M 43.125 106.960938 L 326.128906 106.960938 L 326.128906 212.117188 L 43.125 212.117188 Z M 43.125 106.960938 "
              fill-opacity="1" fill-rule="nonzero"/>
    </g>
    <path fill="#000000"
          d="M 116.867188 113.617188 L 118.859375 113.617188 L 118.859375 205.460938 L 116.867188 205.460938 Z M 116.867188 113.617188 "
          fill-opacity="1" fill-rule="nonzero"/>
    <path fill="#000000"
          d="M 128.824219 167.445312 L 128.824219 137.523438 L 141.03125 137.523438 C 150.230469 137.523438 156.25 144.074219 156.25 152.332031 C 156.25 160.761719 149.96875 167.445312 140.683594 167.445312 Z M 140.683594 143.726562 L 135.582031 143.726562 L 135.582031 161.242188 L 140.902344 161.242188 C 145.742188 161.242188 149.449219 157.484375 149.449219 152.417969 C 149.449219 147.4375 145.742188 143.726562 140.683594 143.726562 Z M 174.34375 168.054688 C 165.625 168.054688 158.515625 161.371094 158.515625 152.503906 C 158.515625 143.59375 165.625 136.910156 174.34375 136.910156 C 183.28125 136.910156 190.171875 143.59375 190.171875 152.460938 C 190.171875 161.371094 183.28125 168.054688 174.34375 168.054688 Z M 174.34375 161.765625 C 179.402344 161.765625 183.28125 157.746094 183.28125 152.460938 C 183.28125 147.261719 179.402344 143.199219 174.34375 143.199219 C 169.285156 143.199219 165.40625 147.261719 165.40625 152.503906 C 165.40625 157.746094 169.285156 161.765625 174.34375 161.765625 Z M 204.867188 143.726562 L 199.894531 143.726562 L 199.894531 151.71875 L 204.648438 151.71875 C 207.570312 151.71875 209.355469 150.058594 209.355469 147.742188 C 209.355469 145.429688 207.875 143.726562 204.867188 143.726562 Z M 199.894531 157.265625 L 199.894531 167.445312 L 193.136719 167.445312 L 193.136719 137.523438 L 205.867188 137.523438 C 212.234375 137.523438 216.160156 141.628906 216.160156 147.480469 C 216.160156 152.15625 213.0625 156.042969 208.003906 157.046875 L 217.511719 167.445312 L 208.703125 167.445312 Z M 226.710938 151.457031 L 237.351562 137.523438 L 245.242188 137.523438 L 233.382812 152.460938 L 245.589844 167.445312 L 236.828125 167.445312 L 226.710938 154.6875 L 226.710938 167.445312 L 219.953125 167.445312 L 219.953125 137.523438 L 226.710938 137.523438 Z M 264.078125 156.304688 L 260.199219 144.597656 L 256.316406 156.304688 Z M 267.785156 167.445312 L 266.082031 162.289062 L 254.355469 162.289062 L 252.652344 167.445312 L 245.722656 167.445312 L 256.273438 137.523438 L 264.558594 137.523438 L 275.066406 167.445312 Z M 307.679688 152.417969 C 307.679688 161.371094 301.488281 168.054688 292.550781 168.054688 C 283.089844 168.054688 276.460938 161.109375 276.460938 152.460938 C 276.460938 143.945312 282.871094 136.910156 292.550781 136.910156 C 298.132812 136.910156 302.449219 139.183594 305.152344 143.070312 L 300.179688 147.308594 C 298.175781 144.773438 295.691406 143.246094 292.550781 143.246094 C 287.363281 143.246094 283.351562 147.089844 283.351562 152.636719 C 283.351562 157.878906 287.101562 161.765625 292.375 161.765625 C 296.386719 161.765625 299.003906 159.757812 300.136719 156.566406 L 292.203125 156.566406 L 292.203125 150.671875 L 307.679688 150.671875 Z M 307.679688 152.417969 "
          fill-opacity="1" fill-rule="nonzero"/>
    <path fill="#000000"
          d="M 130.644531 179.253906 C 130.414062 179.160156 130.199219 179.054688 130 178.9375 C 129.800781 178.824219 129.628906 178.683594 129.484375 178.519531 C 129.339844 178.359375 129.226562 178.164062 129.148438 177.945312 C 129.070312 177.722656 129.027344 177.460938 129.027344 177.160156 C 129.027344 176.78125 129.09375 176.449219 129.222656 176.164062 C 129.355469 175.878906 129.535156 175.636719 129.769531 175.441406 C 130.007812 175.246094 130.289062 175.097656 130.621094 175 C 130.953125 174.898438 131.324219 174.847656 131.726562 174.847656 C 132.058594 174.847656 132.398438 174.878906 132.746094 174.949219 C 133.09375 175.019531 133.507812 175.136719 133.992188 175.300781 L 133.253906 176.625 C 132.785156 176.402344 132.289062 176.289062 131.769531 176.289062 C 131.667969 176.289062 131.566406 176.300781 131.457031 176.324219 C 131.347656 176.34375 131.25 176.382812 131.164062 176.4375 C 131.078125 176.492188 131.003906 176.566406 130.945312 176.660156 C 130.890625 176.753906 130.859375 176.875 130.859375 177.027344 C 130.859375 177.152344 130.882812 177.253906 130.929688 177.332031 C 130.976562 177.410156 131.039062 177.480469 131.109375 177.539062 C 131.183594 177.597656 131.265625 177.644531 131.359375 177.683594 C 131.453125 177.722656 131.546875 177.761719 131.640625 177.796875 L 132.28125 178.046875 C 132.554688 178.15625 132.804688 178.269531 133.03125 178.390625 C 133.261719 178.507812 133.453125 178.65625 133.613281 178.824219 C 133.769531 178.996094 133.894531 179.203125 133.980469 179.449219 C 134.066406 179.695312 134.109375 180.003906 134.109375 180.371094 C 134.109375 180.742188 134.042969 181.078125 133.910156 181.378906 C 133.777344 181.683594 133.582031 181.945312 133.324219 182.15625 C 133.070312 182.371094 132.753906 182.535156 132.378906 182.65625 C 132 182.777344 131.570312 182.835938 131.085938 182.835938 C 130.863281 182.835938 130.65625 182.828125 130.46875 182.8125 C 130.28125 182.800781 130.101562 182.773438 129.921875 182.738281 C 129.746094 182.703125 129.570312 182.65625 129.390625 182.605469 C 129.214844 182.558594 129.027344 182.492188 128.824219 182.410156 L 129.191406 180.890625 C 129.488281 180.972656 129.777344 181.042969 130.0625 181.105469 C 130.347656 181.164062 130.640625 181.195312 130.9375 181.195312 C 131.332031 181.195312 131.636719 181.144531 131.847656 181.039062 C 132.054688 180.933594 132.179688 180.734375 132.214844 180.4375 C 132.230469 180.285156 132.210938 180.15625 132.160156 180.054688 C 132.109375 179.957031 132.039062 179.871094 131.945312 179.800781 C 131.851562 179.734375 131.746094 179.675781 131.628906 179.632812 L 131.28125 179.503906 Z M 140.007812 182.835938 C 139.417969 182.835938 138.914062 182.734375 138.496094 182.53125 C 138.082031 182.328125 137.742188 182.050781 137.480469 181.695312 C 137.214844 181.339844 137.023438 180.917969 136.898438 180.429688 C 136.777344 179.941406 136.714844 179.410156 136.714844 178.828125 C 136.714844 178.25 136.777344 177.71875 136.898438 177.230469 C 137.023438 176.742188 137.214844 176.320312 137.480469 175.96875 C 137.742188 175.617188 138.082031 175.34375 138.496094 175.148438 C 138.914062 174.953125 139.417969 174.855469 140.007812 174.855469 C 140.601562 174.855469 141.105469 174.953125 141.519531 175.148438 C 141.9375 175.34375 142.277344 175.617188 142.539062 175.96875 C 142.804688 176.320312 142.996094 176.742188 143.113281 177.230469 C 143.234375 177.71875 143.292969 178.25 143.292969 178.828125 C 143.292969 179.410156 143.234375 179.941406 143.113281 180.429688 C 142.996094 180.917969 142.804688 181.339844 142.539062 181.695312 C 142.277344 182.050781 141.9375 182.328125 141.519531 182.53125 C 141.105469 182.734375 140.601562 182.835938 140.007812 182.835938 Z M 140.007812 181.316406 C 140.507812 181.316406 140.867188 181.109375 141.085938 180.695312 C 141.308594 180.285156 141.417969 179.660156 141.417969 178.828125 C 141.417969 177.996094 141.3125 177.386719 141.097656 176.996094 C 140.886719 176.605469 140.527344 176.410156 140.019531 176.410156 C 139.507812 176.410156 139.140625 176.605469 138.921875 176.996094 C 138.699219 177.386719 138.589844 177.996094 138.589844 178.828125 C 138.589844 179.660156 138.699219 180.285156 138.921875 180.695312 C 139.140625 181.109375 139.503906 181.316406 140.007812 181.316406 Z M 146.234375 174.964844 L 150.792969 174.964844 C 150.714844 175.253906 150.640625 175.511719 150.566406 175.734375 C 150.507812 175.925781 150.453125 176.097656 150.40625 176.257812 C 150.355469 176.417969 150.324219 176.496094 150.316406 176.496094 L 147.976562 176.496094 L 148 176.734375 L 148 178.070312 L 150.1875 178.070312 L 150.1875 179.621094 L 148 179.621094 L 148 182.714844 L 146.234375 182.714844 Z M 154.894531 176.496094 L 153.042969 176.496094 L 153.042969 174.953125 L 158.621094 174.953125 L 158.371094 175.714844 L 158.125 176.496094 L 156.671875 176.496094 L 156.703125 176.800781 L 156.703125 182.714844 L 154.894531 182.714844 Z M 160.675781 174.964844 L 162.558594 174.964844 L 163.535156 179.808594 L 164.738281 174.964844 L 166.363281 174.964844 L 167.554688 179.914062 L 168.605469 174.964844 L 170.328125 174.964844 L 170.253906 175.296875 L 170.046875 176.175781 L 169.75 177.417969 L 169.40625 178.839844 L 169.066406 180.269531 L 168.761719 181.511719 L 168.546875 182.386719 L 168.464844 182.714844 L 166.621094 182.714844 L 165.484375 178.039062 L 164.269531 182.714844 L 162.539062 182.714844 Z M 174.222656 176.3125 L 173.453125 176.3125 L 174.15625 174.964844 L 176.539062 174.964844 L 178.96875 182.714844 L 177.105469 182.714844 L 176.671875 181.164062 L 176.25 181.195312 L 174.742188 181.195312 L 174.375 181.164062 L 173.929688 182.714844 L 172.183594 182.714844 Z M 176.25 179.6875 L 175.53125 177.105469 L 174.773438 179.6875 Z M 181.671875 175.019531 C 182.015625 174.976562 182.335938 174.941406 182.625 174.917969 C 182.914062 174.890625 183.21875 174.878906 183.542969 174.878906 C 183.941406 174.878906 184.335938 174.917969 184.730469 174.992188 C 185.125 175.070312 185.476562 175.199219 185.789062 175.390625 C 186.097656 175.578125 186.347656 175.832031 186.539062 176.148438 C 186.730469 176.46875 186.828125 176.871094 186.828125 177.363281 C 186.828125 177.648438 186.789062 177.898438 186.714844 178.125 C 186.636719 178.347656 186.542969 178.546875 186.433594 178.714844 C 186.320312 178.886719 186.195312 179.035156 186.058594 179.160156 C 185.921875 179.289062 185.789062 179.394531 185.65625 179.480469 L 185.601562 179.515625 L 185.75 179.753906 L 186.105469 180.347656 L 186.566406 181.121094 L 187.027344 181.886719 L 187.375 182.476562 L 187.511719 182.703125 L 185.527344 182.703125 L 183.480469 179.132812 L 183.480469 182.714844 L 181.671875 182.714844 Z M 183.480469 179.070312 L 183.859375 178.894531 C 183.953125 178.851562 184.066406 178.796875 184.195312 178.730469 C 184.324219 178.667969 184.449219 178.582031 184.574219 178.476562 C 184.695312 178.371094 184.800781 178.246094 184.886719 178.101562 C 184.976562 177.957031 185.019531 177.78125 185.019531 177.570312 C 185.019531 177.347656 184.984375 177.160156 184.921875 177.011719 C 184.855469 176.863281 184.765625 176.742188 184.648438 176.652344 C 184.535156 176.5625 184.398438 176.496094 184.242188 176.457031 C 184.089844 176.417969 183.921875 176.398438 183.738281 176.398438 L 183.613281 176.398438 L 183.480469 176.410156 Z M 190.070312 174.953125 L 194.632812 174.953125 C 194.5625 175.230469 194.488281 175.492188 194.417969 175.734375 C 194.34375 175.980469 194.273438 176.234375 194.199219 176.496094 L 191.816406 176.496094 C 191.816406 176.523438 191.820312 176.566406 191.828125 176.621094 C 191.835938 176.675781 191.835938 176.71875 191.835938 176.746094 L 191.835938 177.886719 L 194.027344 177.886719 L 194.027344 179.4375 L 191.835938 179.4375 L 191.835938 180.925781 L 191.816406 181.175781 L 194.675781 181.175781 L 194.675781 182.714844 L 190.070312 182.714844 Z M 203.65625 179.253906 C 203.425781 179.160156 203.210938 179.054688 203.011719 178.9375 C 202.8125 178.824219 202.640625 178.683594 202.496094 178.519531 C 202.351562 178.359375 202.242188 178.164062 202.160156 177.945312 C 202.082031 177.722656 202.042969 177.460938 202.042969 177.160156 C 202.042969 176.78125 202.105469 176.449219 202.238281 176.164062 C 202.367188 175.878906 202.550781 175.636719 202.785156 175.441406 C 203.019531 175.246094 203.300781 175.097656 203.636719 175 C 203.96875 174.898438 204.335938 174.847656 204.738281 174.847656 C 205.074219 174.847656 205.410156 174.878906 205.757812 174.949219 C 206.105469 175.019531 206.519531 175.136719 207.003906 175.300781 L 206.269531 176.625 C 205.796875 176.402344 205.304688 176.289062 204.785156 176.289062 C 204.683594 176.289062 204.578125 176.300781 204.46875 176.324219 C 204.359375 176.34375 204.261719 176.382812 204.175781 176.4375 C 204.089844 176.492188 204.019531 176.566406 203.960938 176.660156 C 203.902344 176.753906 203.875 176.875 203.875 177.027344 C 203.875 177.152344 203.898438 177.253906 203.945312 177.332031 C 203.992188 177.410156 204.050781 177.480469 204.121094 177.539062 C 204.195312 177.597656 204.277344 177.644531 204.371094 177.683594 C 204.464844 177.722656 204.558594 177.761719 204.652344 177.796875 L 205.292969 178.046875 C 205.566406 178.15625 205.816406 178.269531 206.046875 178.390625 C 206.273438 178.507812 206.464844 178.65625 206.625 178.824219 C 206.785156 178.996094 206.90625 179.203125 206.992188 179.449219 C 207.082031 179.695312 207.125 180.003906 207.125 180.371094 C 207.125 180.742188 207.058594 181.078125 206.921875 181.378906 C 206.789062 181.683594 206.59375 181.945312 206.339844 182.15625 C 206.082031 182.371094 205.765625 182.535156 205.390625 182.65625 C 205.015625 182.777344 204.585938 182.835938 204.101562 182.835938 C 203.878906 182.835938 203.671875 182.828125 203.484375 182.8125 C 203.296875 182.800781 203.113281 182.773438 202.9375 182.738281 C 202.757812 182.703125 202.582031 182.65625 202.40625 182.605469 C 202.226562 182.558594 202.039062 182.492188 201.835938 182.410156 L 202.203125 180.890625 C 202.5 180.972656 202.792969 181.042969 203.078125 181.105469 C 203.363281 181.164062 203.652344 181.195312 203.949219 181.195312 C 204.347656 181.195312 204.648438 181.144531 204.859375 181.039062 C 205.070312 180.933594 205.191406 180.734375 205.226562 180.4375 C 205.242188 180.285156 205.222656 180.15625 205.171875 180.054688 C 205.121094 179.957031 205.050781 179.871094 204.957031 179.800781 C 204.863281 179.734375 204.757812 179.675781 204.644531 179.632812 L 204.296875 179.503906 Z M 213.023438 182.835938 C 212.429688 182.835938 211.925781 182.734375 211.511719 182.53125 C 211.09375 182.328125 210.757812 182.050781 210.492188 181.695312 C 210.230469 181.339844 210.035156 180.917969 209.914062 180.429688 C 209.789062 179.941406 209.730469 179.410156 209.730469 178.828125 C 209.730469 178.25 209.789062 177.71875 209.914062 177.230469 C 210.035156 176.742188 210.230469 176.320312 210.492188 175.96875 C 210.757812 175.617188 211.09375 175.34375 211.511719 175.148438 C 211.925781 174.953125 212.429688 174.855469 213.023438 174.855469 C 213.613281 174.855469 214.117188 174.953125 214.535156 175.148438 C 214.949219 175.34375 215.289062 175.617188 215.550781 175.96875 C 215.816406 176.320312 216.007812 176.742188 216.125 177.230469 C 216.246094 177.71875 216.304688 178.25 216.304688 178.828125 C 216.304688 179.410156 216.246094 179.941406 216.125 180.429688 C 216.007812 180.917969 215.816406 181.339844 215.550781 181.695312 C 215.289062 182.050781 214.949219 182.328125 214.535156 182.53125 C 214.117188 182.734375 213.613281 182.835938 213.023438 182.835938 Z M 213.023438 181.316406 C 213.519531 181.316406 213.878906 181.109375 214.101562 180.695312 C 214.320312 180.285156 214.429688 179.660156 214.429688 178.828125 C 214.429688 177.996094 214.324219 177.386719 214.113281 176.996094 C 213.898438 176.605469 213.539062 176.410156 213.035156 176.410156 C 212.519531 176.410156 212.152344 176.605469 211.933594 176.996094 C 211.714844 177.386719 211.601562 177.996094 211.601562 178.828125 C 211.601562 179.660156 211.714844 180.285156 211.933594 180.695312 C 212.152344 181.109375 212.515625 181.316406 213.023438 181.316406 Z M 219.246094 174.953125 L 220.96875 174.953125 L 220.96875 181.152344 L 222.214844 181.152344 L 222.484375 181.183594 L 222.484375 180.445312 L 223.949219 179.761719 L 223.949219 182.714844 L 219.246094 182.714844 Z M 226.476562 174.953125 L 228.253906 174.953125 L 228.253906 179.101562 C 228.253906 179.507812 228.273438 179.847656 228.308594 180.128906 C 228.34375 180.40625 228.40625 180.628906 228.492188 180.800781 C 228.578125 180.96875 228.699219 181.089844 228.851562 181.164062 C 229.003906 181.234375 229.195312 181.273438 229.425781 181.273438 C 229.664062 181.273438 229.859375 181.234375 230.007812 181.164062 C 230.160156 181.089844 230.28125 180.972656 230.367188 180.804688 C 230.453125 180.640625 230.515625 180.417969 230.550781 180.136719 C 230.585938 179.859375 230.605469 179.515625 230.605469 179.101562 L 230.605469 174.953125 L 232.382812 174.953125 L 232.382812 179.425781 C 232.382812 179.960938 232.335938 180.441406 232.246094 180.859375 C 232.15625 181.28125 232 181.636719 231.777344 181.929688 C 231.550781 182.222656 231.25 182.445312 230.871094 182.601562 C 230.492188 182.757812 230.007812 182.835938 229.425781 182.835938 C 228.847656 182.835938 228.367188 182.757812 227.988281 182.601562 C 227.609375 182.445312 227.308594 182.222656 227.085938 181.929688 C 226.859375 181.636719 226.703125 181.28125 226.613281 180.859375 C 226.523438 180.441406 226.476562 179.960938 226.476562 179.425781 Z M 236.90625 176.496094 L 235.050781 176.496094 L 235.050781 174.953125 L 240.632812 174.953125 L 240.382812 175.714844 L 240.132812 176.496094 L 238.683594 176.496094 L 238.714844 176.800781 L 238.714844 182.714844 L 236.90625 182.714844 Z M 243.28125 174.953125 L 245.046875 174.953125 L 245.046875 182.714844 L 243.28125 182.714844 Z M 251.25 182.835938 C 250.65625 182.835938 250.152344 182.734375 249.738281 182.53125 C 249.320312 182.328125 248.980469 182.050781 248.71875 181.695312 C 248.453125 181.339844 248.261719 180.917969 248.140625 180.429688 C 248.015625 179.941406 247.953125 179.410156 247.953125 178.828125 C 247.953125 178.25 248.015625 177.71875 248.140625 177.230469 C 248.261719 176.742188 248.453125 176.320312 248.71875 175.96875 C 248.980469 175.617188 249.320312 175.34375 249.738281 175.148438 C 250.152344 174.953125 250.65625 174.855469 251.25 174.855469 C 251.839844 174.855469 252.34375 174.953125 252.761719 175.148438 C 253.175781 175.34375 253.515625 175.617188 253.777344 175.96875 C 254.042969 176.320312 254.234375 176.742188 254.351562 177.230469 C 254.472656 177.71875 254.53125 178.25 254.53125 178.828125 C 254.53125 179.410156 254.472656 179.941406 254.351562 180.429688 C 254.234375 180.917969 254.042969 181.339844 253.777344 181.695312 C 253.515625 182.050781 253.175781 182.328125 252.761719 182.53125 C 252.34375 182.734375 251.839844 182.835938 251.25 182.835938 Z M 251.25 181.316406 C 251.746094 181.316406 252.105469 181.109375 252.328125 180.695312 C 252.546875 180.285156 252.65625 179.660156 252.65625 178.828125 C 252.65625 177.996094 252.550781 177.386719 252.335938 176.996094 C 252.125 176.605469 251.765625 176.410156 251.257812 176.410156 C 250.746094 176.410156 250.378906 176.605469 250.160156 176.996094 C 249.9375 177.386719 249.828125 177.996094 249.828125 178.828125 C 249.828125 179.660156 249.9375 180.285156 250.160156 180.695312 C 250.378906 181.109375 250.742188 181.316406 251.25 181.316406 Z M 257.796875 176.3125 L 256.769531 176.3125 L 257.472656 174.953125 L 259.25 174.953125 L 261.816406 179.210938 L 261.882812 179.394531 L 261.882812 174.953125 L 263.574219 174.953125 L 263.574219 182.714844 L 262.132812 182.714844 L 259.53125 178.429688 L 259.476562 178.265625 L 259.476562 182.714844 L 257.796875 182.714844 Z M 268.441406 179.253906 C 268.210938 179.160156 267.996094 179.054688 267.796875 178.9375 C 267.597656 178.824219 267.425781 178.683594 267.28125 178.519531 C 267.136719 178.359375 267.027344 178.164062 266.945312 177.945312 C 266.867188 177.722656 266.828125 177.460938 266.828125 177.160156 C 266.828125 176.78125 266.890625 176.449219 267.023438 176.164062 C 267.152344 175.878906 267.335938 175.636719 267.570312 175.441406 C 267.804688 175.246094 268.085938 175.097656 268.417969 175 C 268.753906 174.898438 269.121094 174.847656 269.523438 174.847656 C 269.855469 174.847656 270.195312 174.878906 270.542969 174.949219 C 270.890625 175.019531 271.304688 175.136719 271.789062 175.300781 L 271.054688 176.625 C 270.582031 176.402344 270.089844 176.289062 269.570312 176.289062 C 269.46875 176.289062 269.363281 176.300781 269.253906 176.324219 C 269.144531 176.34375 269.046875 176.382812 268.960938 176.4375 C 268.875 176.492188 268.804688 176.566406 268.746094 176.660156 C 268.6875 176.753906 268.660156 176.875 268.660156 177.027344 C 268.660156 177.152344 268.683594 177.253906 268.730469 177.332031 C 268.777344 177.410156 268.835938 177.480469 268.90625 177.539062 C 268.980469 177.597656 269.0625 177.644531 269.15625 177.683594 C 269.25 177.722656 269.34375 177.761719 269.4375 177.796875 L 270.078125 178.046875 C 270.351562 178.15625 270.601562 178.269531 270.832031 178.390625 C 271.058594 178.507812 271.25 178.65625 271.410156 178.824219 C 271.570312 178.996094 271.691406 179.203125 271.777344 179.449219 C 271.867188 179.695312 271.910156 180.003906 271.910156 180.371094 C 271.910156 180.742188 271.84375 181.078125 271.707031 181.378906 C 271.574219 181.683594 271.378906 181.945312 271.125 182.15625 C 270.867188 182.371094 270.550781 182.535156 270.175781 182.65625 C 269.800781 182.777344 269.371094 182.835938 268.886719 182.835938 C 268.660156 182.835938 268.457031 182.828125 268.269531 182.8125 C 268.082031 182.800781 267.898438 182.773438 267.722656 182.738281 C 267.542969 182.703125 267.367188 182.65625 267.191406 182.605469 C 267.011719 182.558594 266.824219 182.492188 266.621094 182.410156 L 266.988281 180.890625 C 267.285156 180.972656 267.578125 181.042969 267.863281 181.105469 C 268.148438 181.164062 268.4375 181.195312 268.734375 181.195312 C 269.132812 181.195312 269.433594 181.144531 269.644531 181.039062 C 269.855469 180.933594 269.976562 180.734375 270.011719 180.4375 C 270.027344 180.285156 270.007812 180.15625 269.957031 180.054688 C 269.90625 179.957031 269.835938 179.871094 269.742188 179.800781 C 269.648438 179.734375 269.542969 179.675781 269.425781 179.632812 L 269.082031 179.503906 Z M 268.441406 179.253906 "
          fill-opacity="1" fill-rule="nonzero"/>
    <g clip-path="url(#eded23c3ce)">
        <g clip-path="url(#be0882103f)">
            <path fill="url(#9f05aef7ab)"
                  d="M 53.679688 177.75 L 53.679688 137.21875 L 94.214844 137.21875 L 94.214844 177.75 Z M 53.679688 177.75 "
                  fill-rule="nonzero"/>
        </g>
    </g>
</svg>